# MagicaVoxel @ Ephtracy

# group
o 

# material
mtllib mosset.mtl
usemtl palette

# normals
vn -1 0 0
vn 1 0 0
vn 0 0 1
vn 0 0 -1
vn 0 -1 0
vn 0 1 0

# texcoords
vt 0.423828 0.5
vt 0.427734 0.5
vt 0.478516 0.5
vt 0.482422 0.5
vt 0.767578 0.5
vt 0.912109 0.5
vt 0.994141 0.5

# verts
v -0.4 0 5.96046e-008
v -0.4 0 -0.1
v -0.4 0.1 5.96046e-008
v -0.4 0.1 -0.1
v -0.3 0 0.5
v -0.3 0 0.4
v -0.3 0 0.1
v -0.3 0 5.96046e-008
v -0.3 0.1 0.5
v -0.3 0.1 0.4
v -0.3 0.1 0.1
v -0.3 0.1 5.96046e-008
v -0.2 0.1 0.6
v -0.2 0.1 0.5
v -0.2 0.1 0.4
v -0.2 0.1 0.3
v -0.2 0.1 0.2
v -0.2 0.1 0.1
v -0.2 0.1 5.96046e-008
v -0.2 0.2 0.6
v -0.2 0.2 0.5
v -0.2 0.2 0.4
v -0.2 0.2 0.3
v -0.2 0.2 0.2
v -0.2 0.2 0.1
v -0.2 0.2 5.96046e-008
v -0.2 0.2 -0.1
v -0.2 0.2 -0.3
v -0.2 0.3 0.5
v -0.2 0.3 0.4
v -0.2 0.3 0.3
v -0.2 0.3 0.2
v -0.2 0.3 0.1
v -0.2 0.3 5.96046e-008
v -0.2 0.3 -0.1
v -0.2 0.4 -0.1
v -0.2 0.4 -0.3
v -0.1 0.1 0.3
v -0.1 0.1 0.2
v -0.1 0.1 5.96046e-008
v -0.1 0.1 -0.1
v -0.1 0.2 0.3
v -0.1 0.2 0.2
v -0.1 0.2 5.96046e-008
v -0.1 0.2 -0.1
v -0.1 0.3 0.4
v -0.1 0.3 0.3
v -0.1 0.3 0.2
v -0.1 0.3 0.1
v -0.1 0.3 5.96046e-008
v -0.1 0.3 -0.1
v -0.1 0.4 0.4
v -0.1 0.4 0.3
v -0.1 0.4 0.2
v -0.1 0.4 0.1
v -0.1 0.4 5.96046e-008
v -0.1 0.4 -0.1
v 0 0.4 0.4
v 0 0.4 0.3
v 0 0.4 0.2
v 0 0.4 0.1
v 0 0.4 5.96046e-008
v 0 0.4 -0.1
v 0 0.4 -0.2
v 0 0.4 -0.3
v 0 0.5 0.4
v 0 0.5 0.2
v 0 0.5 5.96046e-008
v 0 0.5 -0.1
v 0 0.5 -0.3
v 0.1 0.2 -0.2
v 0.1 0.2 -0.3
v 0.1 0.3 -0.1
v 0.1 0.3 -0.2
v 0.1 0.4 -0.1
v 0.1 0.4 -0.3
v 0.2 0.1 0.6
v 0.2 0.1 0.5
v 0.2 0.1 0.4
v 0.2 0.2 0.6
v 0.2 0.2 0.5
v 0.2 0.2 0.4
v 0.2 0.2 -0.1
v 0.2 0.2 -0.2
v 0.2 0.3 0.5
v 0.2 0.3 0.4
v 0.2 0.3 -0.1
v 0.2 0.3 -0.2
v 0.3 0 0.5
v 0.3 0 0.4
v 0.3 0 0.1
v 0.3 0 5.96046e-008
v 0.3 0 -0.1
v 0.3 0.1 0.5
v 0.3 0.1 0.4
v 0.3 0.1 0.1
v 0.3 0.1 5.96046e-008
v 0.3 0.1 -0.1
v -0.2 0 0.5
v -0.2 0 0.4
v -0.2 0 0.1
v -0.2 0 -0.1
v -0.2 0.1 0.5
v -0.2 0.1 0.4
v -0.2 0.1 0.1
v -0.2 0.1 5.96046e-008
v -0.2 0.1 -0.1
v -0.1 0.1 0.6
v -0.1 0.1 0.5
v -0.1 0.1 0.4
v -0.1 0.2 0.6
v -0.1 0.2 0.5
v -0.1 0.2 0.4
v -0.1 0.2 -0.1
v -0.1 0.2 -0.2
v -0.1 0.3 0.5
v -0.1 0.3 0.4
v -0.1 0.3 -0.1
v -0.1 0.3 -0.2
v 0 0.2 -0.2
v 0 0.2 -0.3
v 0 0.3 -0.1
v 0 0.3 -0.2
v 0 0.3 -0.3
v 0 0.4 -0.1
v 0 0.4 -0.2
v 0 0.4 -0.3
v 0.1 0.4 0.4
v 0.1 0.4 0.3
v 0.1 0.4 0.2
v 0.1 0.4 0.1
v 0.1 0.4 5.96046e-008
v 0.1 0.4 -0.1
v 0.1 0.4 -0.3
v 0.1 0.5 0.4
v 0.1 0.5 0.2
v 0.1 0.5 5.96046e-008
v 0.1 0.5 -0.1
v 0.1 0.5 -0.3
v 0.2 0.1 0.3
v 0.2 0.1 0.2
v 0.2 0.2 0.3
v 0.2 0.2 0.2
v 0.2 0.3 0.4
v 0.2 0.3 0.3
v 0.2 0.3 0.2
v 0.2 0.3 0.1
v 0.2 0.3 5.96046e-008
v 0.2 0.3 -0.1
v 0.2 0.4 0.4
v 0.2 0.4 0.3
v 0.2 0.4 0.1
v 0.2 0.4 5.96046e-008
v 0.2 0.4 -0.1
v 0.3 0.1 0.6
v 0.3 0.1 0.5
v 0.3 0.1 0.4
v 0.3 0.1 0.3
v 0.3 0.1 0.2
v 0.3 0.1 0.1
v 0.3 0.1 5.96046e-008
v 0.3 0.1 -0.1
v 0.3 0.2 0.6
v 0.3 0.2 0.5
v 0.3 0.2 0.4
v 0.3 0.2 0.3
v 0.3 0.2 0.2
v 0.3 0.2 0.1
v 0.3 0.2 5.96046e-008
v 0.3 0.2 -0.1
v 0.3 0.2 -0.3
v 0.3 0.3 0.5
v 0.3 0.3 0.4
v 0.3 0.3 0.3
v 0.3 0.3 0.2
v 0.3 0.3 5.96046e-008
v 0.3 0.3 -0.1
v 0.3 0.3 -0.2
v 0.3 0.3 -0.3
v 0.3 0.4 -0.1
v 0.3 0.4 -0.2
v 0.3 0.4 -0.3
v 0.4 0 0.5
v 0.4 0 0.4
v 0.4 0 0.1
v 0.4 0 5.96046e-008
v 0.4 0.1 0.5
v 0.4 0.1 0.4
v 0.4 0.1 0.1
v 0.4 0.1 5.96046e-008
v 0.5 0 5.96046e-008
v 0.5 0 -0.1
v 0.5 0.1 5.96046e-008
v 0.5 0.1 -0.1
v -0.2 0.1 0.6
v -0.2 0.2 0.6
v -0.1 0.1 0.6
v -0.1 0.2 0.6
v 0.2 0.1 0.6
v 0.2 0.2 0.6
v 0.3 0.1 0.6
v 0.3 0.2 0.6
v -0.3 0 0.5
v -0.3 0.1 0.5
v -0.2 0 0.5
v -0.2 0.1 0.5
v -0.2 0.2 0.5
v -0.2 0.3 0.5
v -0.1 0.2 0.5
v -0.1 0.3 0.5
v 0.2 0.2 0.5
v 0.2 0.3 0.5
v 0.3 0 0.5
v 0.3 0.1 0.5
v 0.3 0.2 0.5
v 0.3 0.3 0.5
v 0.4 0 0.5
v 0.4 0.1 0.5
v -0.1 0.1 0.4
v -0.1 0.2 0.4
v -0.1 0.3 0.4
v -0.1 0.4 0.4
v 0 0.3 0.4
v 0 0.4 0.4
v 0 0.5 0.4
v 0.1 0.3 0.4
v 0.1 0.4 0.4
v 0.1 0.5 0.4
v 0.2 0.1 0.4
v 0.2 0.2 0.4
v 0.2 0.3 0.4
v 0.2 0.4 0.4
v -0.2 0.1 0.2
v -0.2 0.2 0.2
v -0.1 0.1 0.2
v -0.1 0.2 0.2
v 0.2 0.1 0.2
v 0.2 0.2 0.2
v 0.3 0.1 0.2
v 0.3 0.2 0.2
v -0.3 0 0.1
v -0.3 0.1 0.1
v -0.2 0 0.1
v -0.2 0.1 0.1
v 0.3 0 0.1
v 0.3 0.1 0.1
v 0.4 0 0.1
v 0.4 0.1 0.1
v -0.4 0 5.96046e-008
v -0.4 0.1 5.96046e-008
v -0.3 0 5.96046e-008
v -0.3 0.1 5.96046e-008
v 0.4 0 5.96046e-008
v 0.4 0.1 5.96046e-008
v 0.5 0 5.96046e-008
v 0.5 0.1 5.96046e-008
v -0.2 0.3 -0.1
v -0.2 0.4 -0.1
v -0.1 0.3 -0.1
v -0.1 0.4 -0.1
v 0.2 0.3 -0.1
v 0.2 0.4 -0.1
v 0.3 0.3 -0.1
v 0.3 0.4 -0.1
v -0.1 0.2 -0.2
v -0.1 0.3 -0.2
v 0 0.2 -0.2
v 0 0.3 -0.2
v 0.1 0.2 -0.2
v 0.1 0.3 -0.2
v 0.2 0.2 -0.2
v 0.2 0.3 -0.2
v -0.3 0 0.4
v -0.3 0.1 0.4
v -0.2 0 0.4
v -0.2 0.1 0.4
v 0.3 0 0.4
v 0.3 0.1 0.4
v 0.4 0 0.4
v 0.4 0.1 0.4
v -0.2 0.1 0.3
v -0.2 0.2 0.3
v -0.1 0.1 0.3
v -0.1 0.2 0.3
v 0.2 0.1 0.3
v 0.2 0.2 0.3
v 0.3 0.1 0.3
v 0.3 0.2 0.3
v -0.2 0.1 5.96046e-008
v -0.2 0.2 5.96046e-008
v -0.1 0.1 5.96046e-008
v -0.1 0.2 5.96046e-008
v -0.4 0 -0.1
v -0.4 0.1 -0.1
v -0.2 0 -0.1
v -0.2 0.1 -0.1
v -0.1 0.1 -0.1
v -0.1 0.2 -0.1
v -0.1 0.3 -0.1
v 0 0.1 -0.1
v 0 0.3 -0.1
v 0 0.4 -0.1
v 0.1 0.3 -0.1
v 0.1 0.4 -0.1
v 0.2 0.1 -0.1
v 0.2 0.2 -0.1
v 0.2 0.3 -0.1
v 0.3 0 -0.1
v 0.3 0.1 -0.1
v 0.3 0.2 -0.1
v 0.4 0 -0.1
v 0.4 0.1 -0.1
v 0.5 0 -0.1
v 0.5 0.1 -0.1
v -0.2 0.2 -0.3
v -0.2 0.4 -0.3
v -0.1 0.3 -0.3
v -0.1 0.4 -0.3
v 0 0.2 -0.3
v 0 0.3 -0.3
v 0 0.4 -0.3
v 0 0.5 -0.3
v 0.1 0.2 -0.3
v 0.1 0.4 -0.3
v 0.1 0.5 -0.3
v 0.2 0.3 -0.3
v 0.2 0.4 -0.3
v 0.3 0.2 -0.3
v 0.3 0.3 -0.3
v 0.3 0.4 -0.3
v -0.3 0 0.5
v -0.2 0 0.5
v 0.3 0 0.5
v 0.4 0 0.5
v -0.3 0 0.4
v -0.2 0 0.4
v 0.3 0 0.4
v 0.4 0 0.4
v -0.3 0 0.1
v -0.2 0 0.1
v 0.3 0 0.1
v 0.4 0 0.1
v -0.4 0 5.96046e-008
v -0.3 0 5.96046e-008
v 0.3 0 5.96046e-008
v 0.4 0 5.96046e-008
v 0.5 0 5.96046e-008
v -0.4 0 -0.1
v -0.2 0 -0.1
v 0.3 0 -0.1
v 0.4 0 -0.1
v 0.5 0 -0.1
v -0.2 0.1 0.6
v -0.1 0.1 0.6
v 0.2 0.1 0.6
v 0.3 0.1 0.6
v -0.2 0.1 0.5
v -0.1 0.1 0.5
v 0.2 0.1 0.5
v 0.3 0.1 0.5
v -0.2 0.1 0.4
v -0.1 0.1 0.4
v 0.2 0.1 0.4
v 0.3 0.1 0.4
v -0.2 0.1 0.3
v -0.1 0.1 0.3
v 0.2 0.1 0.3
v 0.3 0.1 0.3
v -0.2 0.1 0.2
v -0.1 0.1 0.2
v 0.2 0.1 0.2
v 0.3 0.1 0.2
v -0.2 0.1 0.1
v -0.1 0.1 0.1
v 0.2 0.1 0.1
v 0.3 0.1 0.1
v -0.2 0.1 5.96046e-008
v -0.1 0.1 5.96046e-008
v 0 0.1 5.96046e-008
v 0.2 0.1 5.96046e-008
v 0.3 0.1 5.96046e-008
v -0.1 0.1 -0.1
v 0 0.1 -0.1
v 0.2 0.1 -0.1
v 0.3 0.1 -0.1
v -0.2 0.2 0.3
v -0.1 0.2 0.3
v 0.2 0.2 0.3
v 0.3 0.2 0.3
v -0.2 0.2 0.2
v -0.1 0.2 0.2
v 0.2 0.2 0.2
v 0.3 0.2 0.2
v -0.2 0.2 5.96046e-008
v -0.1 0.2 5.96046e-008
v -0.2 0.2 -0.1
v -0.1 0.2 -0.1
v 0.2 0.2 -0.1
v 0.3 0.2 -0.1
v -0.1 0.2 -0.2
v 0 0.2 -0.2
v 0.1 0.2 -0.2
v 0.2 0.2 -0.2
v -0.2 0.2 -0.3
v 0 0.2 -0.3
v 0.1 0.2 -0.3
v 0.3 0.2 -0.3
v -0.1 0.3 -0.1
v 0 0.3 -0.1
v 0.1 0.3 -0.1
v 0.2 0.3 -0.1
v -0.1 0.3 -0.2
v 0 0.3 -0.2
v 0.1 0.3 -0.2
v 0.2 0.3 -0.2
v 0 0.4 -0.1
v 0.1 0.4 -0.1
v 0 0.4 -0.2
v 0 0.4 -0.3
v 0.1 0.4 -0.3
v -0.3 0.1 0.5
v -0.2 0.1 0.5
v 0.3 0.1 0.5
v 0.4 0.1 0.5
v -0.3 0.1 0.4
v -0.2 0.1 0.4
v 0.3 0.1 0.4
v 0.4 0.1 0.4
v -0.3 0.1 0.1
v -0.2 0.1 0.1
v 0.3 0.1 0.1
v 0.4 0.1 0.1
v -0.4 0.1 5.96046e-008
v -0.3 0.1 5.96046e-008
v -0.2 0.1 5.96046e-008
v 0.3 0.1 5.96046e-008
v 0.4 0.1 5.96046e-008
v 0.5 0.1 5.96046e-008
v -0.4 0.1 -0.1
v -0.2 0.1 -0.1
v 0.3 0.1 -0.1
v 0.4 0.1 -0.1
v 0.5 0.1 -0.1
v -0.2 0.2 0.6
v -0.1 0.2 0.6
v 0.2 0.2 0.6
v 0.3 0.2 0.6
v -0.2 0.2 0.5
v -0.1 0.2 0.5
v 0.2 0.2 0.5
v 0.3 0.2 0.5
v -0.2 0.3 0.5
v -0.1 0.3 0.5
v 0.2 0.3 0.5
v 0.3 0.3 0.5
v -0.2 0.3 0.4
v -0.1 0.3 0.4
v 0.2 0.3 0.4
v 0.3 0.3 0.4
v -0.2 0.3 0.3
v -0.1 0.3 0.3
v 0.2 0.3 0.3
v 0.3 0.3 0.3
v -0.2 0.3 0.2
v -0.1 0.3 0.2
v 0.2 0.3 0.2
v 0.3 0.3 0.2
v -0.2 0.3 0.1
v -0.1 0.3 0.1
v 0.2 0.3 0.1
v -0.2 0.3 5.96046e-008
v -0.1 0.3 5.96046e-008
v 0.2 0.3 5.96046e-008
v 0.3 0.3 5.96046e-008
v -0.2 0.3 -0.1
v -0.1 0.3 -0.1
v 0.2 0.3 -0.1
v 0.3 0.3 -0.1
v -0.1 0.4 0.4
v 0 0.4 0.4
v 0.1 0.4 0.4
v 0.2 0.4 0.4
v -0.1 0.4 0.3
v 0 0.4 0.3
v 0.1 0.4 0.3
v 0.2 0.4 0.3
v -0.1 0.4 0.2
v 0 0.4 0.2
v 0.1 0.4 0.2
v -0.1 0.4 0.1
v 0 0.4 0.1
v 0.1 0.4 0.1
v 0.2 0.4 0.1
v -0.1 0.4 5.96046e-008
v 0 0.4 5.96046e-008
v 0.1 0.4 5.96046e-008
v 0.2 0.4 5.96046e-008
v -0.2 0.4 -0.1
v -0.1 0.4 -0.1
v 0 0.4 -0.1
v 0.1 0.4 -0.1
v 0.2 0.4 -0.1
v 0.3 0.4 -0.1
v -0.1 0.4 -0.2
v 0 0.4 -0.2
v 0.2 0.4 -0.2
v 0.3 0.4 -0.2
v -0.2 0.4 -0.3
v -0.1 0.4 -0.3
v 0 0.4 -0.3
v 0.1 0.4 -0.3
v 0.2 0.4 -0.3
v 0.3 0.4 -0.3
v 0 0.5 0.4
v 0.1 0.5 0.4
v 0 0.5 0.2
v 0.1 0.5 0.2
v 0 0.5 5.96046e-008
v 0.1 0.5 5.96046e-008
v 0 0.5 -0.1
v 0.1 0.5 -0.1
v 0 0.5 -0.3
v 0.1 0.5 -0.3

# faces
f 3/2/1 2/2/1 1/2/1
f 4/2/1 2/2/1 3/2/1
f 9/2/1 6/2/1 5/2/1
f 10/2/1 6/2/1 9/2/1
f 11/2/1 8/2/1 7/2/1
f 12/2/1 8/2/1 11/2/1
f 20/7/1 14/7/1 13/7/1
f 21/2/1 15/2/1 14/2/1
f 21/7/1 14/7/1 20/7/1
f 22/1/1 16/1/1 15/1/1
f 22/2/1 15/2/1 21/2/1
f 23/1/1 16/1/1 22/1/1
f 24/2/1 18/2/1 17/2/1
f 25/5/1 19/5/1 18/5/1
f 25/2/1 18/2/1 24/2/1
f 26/5/1 19/5/1 25/5/1
f 29/7/1 22/7/1 21/7/1
f 30/1/1 23/1/1 22/1/1
f 30/7/1 22/7/1 29/7/1
f 31/7/1 24/7/1 23/7/1
f 31/1/1 23/1/1 30/1/1
f 32/2/1 25/2/1 24/2/1
f 32/7/1 24/7/1 31/7/1
f 33/1/1 26/1/1 25/1/1
f 33/2/1 25/2/1 32/2/1
f 34/5/1 27/5/1 26/5/1
f 34/1/1 26/1/1 33/1/1
f 35/7/1 28/7/1 27/7/1
f 35/5/1 27/5/1 34/5/1
f 36/7/1 28/7/1 35/7/1
f 37/7/1 28/7/1 36/7/1
f 42/7/1 39/7/1 38/7/1
f 43/7/1 39/7/1 42/7/1
f 44/1/1 41/1/1 40/1/1
f 45/1/1 41/1/1 44/1/1
f 52/2/1 47/2/1 46/2/1
f 53/4/1 48/4/1 47/4/1
f 53/2/1 47/2/1 52/2/1
f 54/1/1 49/1/1 48/1/1
f 54/4/1 48/4/1 53/4/1
f 55/7/1 50/7/1 49/7/1
f 55/1/1 49/1/1 54/1/1
f 56/1/1 51/1/1 50/1/1
f 56/7/1 50/7/1 55/7/1
f 57/1/1 51/1/1 56/1/1
f 66/7/1 59/7/1 58/7/1
f 66/7/1 60/7/1 59/7/1
f 67/3/1 61/3/1 60/3/1
f 67/7/1 60/7/1 66/7/1
f 67/3/1 62/3/1 61/3/1
f 68/4/1 63/4/1 62/4/1
f 68/3/1 62/3/1 67/3/1
f 69/5/1 65/5/1 64/5/1
f 69/4/1 63/4/1 68/4/1
f 69/5/1 64/5/1 63/5/1
f 70/5/1 65/5/1 69/5/1
f 74/7/1 72/7/1 71/7/1
f 75/7/1 74/7/1 73/7/1
f 76/7/1 72/7/1 74/7/1
f 76/7/1 74/7/1 75/7/1
f 80/7/1 78/7/1 77/7/1
f 81/1/1 79/1/1 78/1/1
f 81/7/1 78/7/1 80/7/1
f 82/1/1 79/1/1 81/1/1
f 85/7/1 82/7/1 81/7/1
f 86/7/1 82/7/1 85/7/1
f 87/7/1 84/7/1 83/7/1
f 88/7/1 84/7/1 87/7/1
f 94/3/1 90/3/1 89/3/1
f 95/3/1 90/3/1 94/3/1
f 96/2/1 92/2/1 91/2/1
f 97/4/1 93/4/1 92/4/1
f 97/2/1 92/2/1 96/2/1
f 98/4/1 93/4/1 97/4/1
f 99/2/2 100/2/2 103/2/2
f 103/2/2 100/2/2 104/2/2
f 101/2/2 102/2/2 105/2/2
f 105/2/2 102/2/2 106/2/2
f 106/2/2 102/2/2 107/2/2
f 108/7/2 109/7/2 111/7/2
f 109/2/2 110/2/2 112/2/2
f 111/7/2 109/7/2 112/7/2
f 112/2/2 110/2/2 113/2/2
f 112/7/2 113/7/2 116/7/2
f 116/7/2 113/7/2 117/7/2
f 114/7/2 115/7/2 118/7/2
f 118/7/2 115/7/2 119/7/2
f 120/7/2 121/7/2 123/7/2
f 123/7/2 121/7/2 124/7/2
f 122/7/2 123/7/2 125/7/2
f 123/6/2 124/6/2 126/6/2
f 125/7/2 123/7/2 126/7/2
f 126/6/2 124/6/2 127/6/2
f 128/7/2 129/7/2 135/7/2
f 129/7/2 130/7/2 135/7/2
f 130/3/2 131/3/2 136/3/2
f 135/7/2 130/7/2 136/7/2
f 131/3/2 132/3/2 136/3/2
f 132/4/2 133/4/2 137/4/2
f 136/3/2 132/3/2 137/3/2
f 133/5/2 134/5/2 138/5/2
f 137/4/2 133/4/2 138/4/2
f 138/5/2 134/5/2 139/5/2
f 140/7/2 141/7/2 142/7/2
f 142/7/2 141/7/2 143/7/2
f 144/1/2 145/1/2 150/1/2
f 145/2/2 146/2/2 151/2/2
f 150/1/2 145/1/2 151/1/2
f 146/2/2 147/2/2 151/2/2
f 147/7/2 148/7/2 152/7/2
f 151/2/2 147/2/2 152/2/2
f 148/4/2 149/4/2 153/4/2
f 152/7/2 148/7/2 153/7/2
f 153/4/2 149/4/2 154/4/2
f 155/7/2 156/7/2 163/7/2
f 156/1/2 157/1/2 164/1/2
f 163/7/2 156/7/2 164/7/2
f 157/1/2 158/1/2 164/1/2
f 164/1/2 158/1/2 165/1/2
f 165/1/2 158/1/2 166/1/2
f 159/2/2 160/2/2 167/2/2
f 161/5/2 162/5/2 168/5/2
f 160/5/2 161/5/2 168/5/2
f 167/2/2 160/2/2 168/2/2
f 168/5/2 162/5/2 169/5/2
f 169/5/2 162/5/2 170/5/2
f 164/7/2 165/7/2 172/7/2
f 165/4/2 166/4/2 173/4/2
f 172/7/2 165/7/2 173/7/2
f 166/7/2 167/7/2 174/7/2
f 173/4/2 166/4/2 174/4/2
f 167/3/2 168/3/2 175/3/2
f 174/7/2 167/7/2 175/7/2
f 168/3/2 169/3/2 175/3/2
f 169/5/2 170/5/2 176/5/2
f 175/3/2 169/3/2 176/3/2
f 170/7/2 171/7/2 177/7/2
f 176/5/2 170/5/2 177/5/2
f 177/7/2 171/7/2 178/7/2
f 178/7/2 171/7/2 179/7/2
f 177/7/2 178/7/2 180/7/2
f 178/6/2 179/6/2 181/6/2
f 180/7/2 178/7/2 181/7/2
f 181/6/2 179/6/2 182/6/2
f 183/3/2 184/3/2 187/3/2
f 187/3/2 184/3/2 188/3/2
f 185/2/2 186/2/2 189/2/2
f 189/2/2 186/2/2 190/2/2
f 191/2/2 192/2/2 193/2/2
f 193/2/2 192/2/2 194/2/2
f 197/7/3 196/7/3 195/7/3
f 198/7/3 196/7/3 197/7/3
f 201/7/3 200/7/3 199/7/3
f 202/7/3 200/7/3 201/7/3
f 205/2/3 204/2/3 203/2/3
f 206/2/3 204/2/3 205/2/3
f 209/7/3 208/7/3 207/7/3
f 210/7/3 208/7/3 209/7/3
f 215/7/3 212/7/3 211/7/3
f 216/7/3 212/7/3 215/7/3
f 217/3/3 214/3/3 213/3/3
f 218/3/3 214/3/3 217/3/3
f 223/7/3 221/7/3 220/7/3
f 223/2/3 222/2/3 221/2/3
f 224/2/3 222/2/3 223/2/3
f 226/7/3 223/7/3 220/7/3
f 226/7/3 225/7/3 224/7/3
f 226/7/3 224/7/3 223/7/3
f 227/7/3 225/7/3 226/7/3
f 228/7/3 225/7/3 227/7/3
f 229/1/3 220/1/3 219/1/3
f 230/7/3 226/7/3 220/7/3
f 230/1/3 220/1/3 229/1/3
f 231/1/3 227/1/3 226/1/3
f 231/7/3 226/7/3 230/7/3
f 232/1/3 227/1/3 231/1/3
f 235/2/3 234/2/3 233/2/3
f 236/2/3 234/2/3 235/2/3
f 239/2/3 238/2/3 237/2/3
f 240/2/3 238/2/3 239/2/3
f 243/2/3 242/2/3 241/2/3
f 244/2/3 242/2/3 243/2/3
f 247/2/3 246/2/3 245/2/3
f 248/2/3 246/2/3 247/2/3
f 251/2/3 250/2/3 249/2/3
f 252/2/3 250/2/3 251/2/3
f 255/2/3 254/2/3 253/2/3
f 256/2/3 254/2/3 255/2/3
f 259/7/3 258/7/3 257/7/3
f 260/7/3 258/7/3 259/7/3
f 263/7/3 262/7/3 261/7/3
f 264/7/3 262/7/3 263/7/3
f 267/7/3 266/7/3 265/7/3
f 268/7/3 266/7/3 267/7/3
f 271/7/3 270/7/3 269/7/3
f 272/7/3 270/7/3 271/7/3
f 273/2/4 274/2/4 275/2/4
f 275/2/4 274/2/4 276/2/4
f 277/3/4 278/3/4 279/3/4
f 279/3/4 278/3/4 280/3/4
f 281/1/4 282/1/4 283/1/4
f 283/1/4 282/1/4 284/1/4
f 285/1/4 286/1/4 287/1/4
f 287/1/4 286/1/4 288/1/4
f 289/5/4 290/5/4 291/5/4
f 291/5/4 290/5/4 292/5/4
f 293/2/4 294/2/4 295/2/4
f 295/2/4 294/2/4 296/2/4
f 297/1/4 298/1/4 300/1/4
f 298/1/4 299/1/4 300/1/4
f 300/1/4 299/1/4 301/1/4
f 300/4/4 301/4/4 303/4/4
f 301/4/4 302/4/4 303/4/4
f 303/4/4 302/4/4 304/4/4
f 300/4/4 303/4/4 305/4/4
f 305/4/4 303/4/4 306/4/4
f 306/4/4 303/4/4 307/4/4
f 305/5/4 306/5/4 309/5/4
f 309/5/4 306/5/4 310/5/4
f 308/4/4 309/4/4 311/4/4
f 311/4/4 309/4/4 312/4/4
f 311/2/4 312/2/4 313/2/4
f 313/2/4 312/2/4 314/2/4
f 315/7/4 316/7/4 317/7/4
f 317/7/4 316/7/4 318/7/4
f 315/7/4 317/7/4 319/7/4
f 317/6/4 318/6/4 320/6/4
f 319/7/4 317/7/4 320/7/4
f 320/6/4 318/6/4 321/6/4
f 321/5/4 322/5/4 324/5/4
f 324/5/4 322/5/4 325/5/4
f 323/7/4 324/7/4 326/7/4
f 326/7/4 324/7/4 327/7/4
f 323/7/4 326/7/4 328/7/4
f 326/6/4 327/6/4 329/6/4
f 328/7/4 326/7/4 329/7/4
f 329/6/4 327/6/4 330/6/4
f 335/2/5 332/2/5 331/2/5
f 336/2/5 332/2/5 335/2/5
f 337/3/5 334/3/5 333/3/5
f 338/3/5 334/3/5 337/3/5
f 344/2/5 340/2/5 339/2/5
f 345/2/5 342/2/5 341/2/5
f 346/2/5 342/2/5 345/2/5
f 348/2/5 344/2/5 343/2/5
f 349/2/5 340/2/5 344/2/5
f 349/2/5 344/2/5 348/2/5
f 350/4/5 346/4/5 345/4/5
f 351/2/5 347/2/5 346/2/5
f 351/4/5 346/4/5 350/4/5
f 352/2/5 347/2/5 351/2/5
f 357/7/5 354/7/5 353/7/5
f 358/7/5 354/7/5 357/7/5
f 359/7/5 356/7/5 355/7/5
f 360/7/5 356/7/5 359/7/5
f 361/2/5 358/2/5 357/2/5
f 362/2/5 358/2/5 361/2/5
f 363/1/5 360/1/5 359/1/5
f 364/1/5 360/1/5 363/1/5
f 365/1/5 362/1/5 361/1/5
f 365/1/5 363/1/5 362/1/5
f 365/1/5 364/1/5 363/1/5
f 366/1/5 364/1/5 365/1/5
f 367/1/5 364/1/5 366/1/5
f 368/1/5 364/1/5 367/1/5
f 370/7/5 367/7/5 366/7/5
f 371/7/5 367/7/5 370/7/5
f 373/2/5 370/2/5 369/2/5
f 374/7/5 371/7/5 370/7/5
f 374/2/5 370/2/5 373/2/5
f 375/2/5 372/2/5 371/2/5
f 375/7/5 371/7/5 374/7/5
f 376/2/5 372/2/5 375/2/5
f 377/5/5 374/5/5 373/5/5
f 378/7/5 375/7/5 374/7/5
f 378/5/5 374/5/5 377/5/5
f 379/7/5 375/7/5 378/7/5
f 380/5/5 376/5/5 375/5/5
f 380/7/5 375/7/5 379/7/5
f 381/5/5 376/5/5 380/5/5
f 382/1/5 379/1/5 378/1/5
f 383/4/5 380/4/5 379/4/5
f 383/1/5 379/1/5 382/1/5
f 384/5/5 381/5/5 380/5/5
f 384/4/5 380/4/5 383/4/5
f 385/5/5 381/5/5 384/5/5
f 390/7/5 387/7/5 386/7/5
f 391/7/5 387/7/5 390/7/5
f 392/7/5 389/7/5 388/7/5
f 393/7/5 389/7/5 392/7/5
f 396/5/5 395/5/5 394/5/5
f 397/5/5 395/5/5 396/5/5
f 400/7/5 397/7/5 396/7/5
f 403/7/5 399/7/5 398/7/5
f 404/7/5 401/7/5 400/7/5
f 404/7/5 400/7/5 396/7/5
f 405/7/5 401/7/5 404/7/5
f 406/7/5 403/7/5 402/7/5
f 407/7/5 399/7/5 403/7/5
f 407/7/5 403/7/5 406/7/5
f 412/7/5 409/7/5 408/7/5
f 413/7/5 409/7/5 412/7/5
f 414/7/5 411/7/5 410/7/5
f 415/7/5 411/7/5 414/7/5
f 418/5/5 417/5/5 416/5/5
f 419/5/5 417/5/5 418/5/5
f 420/5/5 417/5/5 419/5/5
f 421/2/6 422/2/6 425/2/6
f 425/2/6 422/2/6 426/2/6
f 423/3/6 424/3/6 427/3/6
f 427/3/6 424/3/6 428/3/6
f 429/2/6 430/2/6 434/2/6
f 434/2/6 430/2/6 435/2/6
f 431/2/6 432/2/6 436/2/6
f 436/2/6 432/2/6 437/2/6
f 434/2/6 435/2/6 439/2/6
f 433/2/6 434/2/6 439/2/6
f 439/2/6 435/2/6 440/2/6
f 436/4/6 437/4/6 441/4/6
f 437/2/6 438/2/6 442/2/6
f 441/4/6 437/4/6 442/4/6
f 442/2/6 438/2/6 443/2/6
f 444/7/6 445/7/6 448/7/6
f 448/7/6 445/7/6 449/7/6
f 446/7/6 447/7/6 450/7/6
f 450/7/6 447/7/6 451/7/6
f 452/7/6 453/7/6 456/7/6
f 456/7/6 453/7/6 457/7/6
f 454/7/6 455/7/6 458/7/6
f 458/7/6 455/7/6 459/7/6
f 456/1/6 457/1/6 460/1/6
f 460/1/6 457/1/6 461/1/6
f 458/4/6 459/4/6 462/4/6
f 462/4/6 459/4/6 463/4/6
f 460/7/6 461/7/6 464/7/6
f 464/7/6 461/7/6 465/7/6
f 462/7/6 463/7/6 466/7/6
f 466/7/6 463/7/6 467/7/6
f 464/2/6 465/2/6 468/2/6
f 468/2/6 465/2/6 469/2/6
f 466/3/6 467/3/6 470/3/6
f 468/1/6 469/1/6 471/1/6
f 471/1/6 469/1/6 472/1/6
f 470/3/6 467/3/6 473/3/6
f 473/3/6 467/3/6 474/3/6
f 471/5/6 472/5/6 475/5/6
f 475/5/6 472/5/6 476/5/6
f 473/5/6 474/5/6 477/5/6
f 477/5/6 474/5/6 478/5/6
f 479/2/6 480/2/6 483/2/6
f 483/2/6 480/2/6 484/2/6
f 481/1/6 482/1/6 485/1/6
f 485/1/6 482/1/6 486/1/6
f 483/4/6 484/4/6 487/4/6
f 487/4/6 484/4/6 488/4/6
f 485/2/6 486/2/6 489/2/6
f 487/1/6 488/1/6 490/1/6
f 490/1/6 488/1/6 491/1/6
f 489/2/6 486/2/6 492/2/6
f 492/2/6 486/2/6 493/2/6
f 490/7/6 491/7/6 494/7/6
f 494/7/6 491/7/6 495/7/6
f 492/7/6 493/7/6 496/7/6
f 496/7/6 493/7/6 497/7/6
f 494/1/6 495/1/6 499/1/6
f 499/1/6 495/1/6 500/1/6
f 496/4/6 497/4/6 501/4/6
f 501/4/6 497/4/6 502/4/6
f 498/7/6 499/7/6 504/7/6
f 499/7/6 500/7/6 504/7/6
f 504/7/6 500/7/6 505/7/6
f 501/7/6 502/7/6 506/7/6
f 502/7/6 503/7/6 506/7/6
f 506/7/6 503/7/6 507/7/6
f 498/7/6 504/7/6 508/7/6
f 504/6/6 505/6/6 509/6/6
f 508/7/6 504/7/6 509/7/6
f 509/6/6 505/6/6 510/6/6
f 501/7/6 506/7/6 511/7/6
f 506/6/6 507/6/6 512/6/6
f 511/7/6 506/7/6 512/7/6
f 512/6/6 507/6/6 513/6/6
f 514/7/6 515/7/6 516/7/6
f 516/7/6 515/7/6 517/7/6
f 516/3/6 517/3/6 518/3/6
f 518/3/6 517/3/6 519/3/6
f 518/4/6 519/4/6 520/4/6
f 520/4/6 519/4/6 521/4/6
f 520/5/6 521/5/6 522/5/6
f 522/5/6 521/5/6 523/5/6
