# Blender 4.1.1
# www.blender.org
mtllib log.mtl
o Cylinder
v -3.523292 0.796557 -0.524490
v -3.105293 0.499481 -0.866325
v -3.523124 0.054057 -0.953172
v 4.134846 0.055943 -0.952083
v 3.766847 0.500519 -0.865726
v 4.134678 0.798443 -0.523401
v -3.523105 -0.055943 -0.953172
v -3.105106 -0.500519 -0.866325
v -3.523021 -0.798443 -0.524490
v 4.134949 -0.796557 -0.523401
v 3.767034 -0.499482 -0.865726
v 4.134865 -0.054057 -0.952083
v -3.523021 -0.853443 -0.429227
v -3.105106 -1.000519 -0.000300
v -3.523105 -0.853443 0.428138
v 4.134865 -0.851557 0.429227
v 3.767034 -0.999482 0.000299
v 4.134949 -0.851557 -0.428138
v -3.523124 -0.798443 0.523401
v -3.105293 -0.500519 0.865726
v -3.523292 -0.055943 0.952083
v 4.134678 -0.054057 0.953172
v 3.766847 -0.499481 0.866325
v 4.134846 -0.796557 0.524490
v -3.523311 0.054057 0.952083
v -3.105479 0.499482 0.865726
v -3.523395 0.796557 0.523401
v 4.134575 0.798443 0.524490
v 3.766660 0.500519 0.866325
v 4.134660 0.055943 0.953173
v -3.523395 0.851557 0.428138
v -3.105479 0.999482 -0.000299
v -3.523311 0.851557 -0.429227
v 4.134659 0.853443 -0.428138
v 3.766660 1.000519 0.000300
v 4.134575 0.853443 0.429227
v -3.789805 0.042779 -0.755665
v -3.789981 0.631392 -0.415830
v -3.789697 -0.633036 -0.415830
v -3.789785 -0.044423 -0.755665
v -3.789785 -0.676637 0.339361
v -3.789697 -0.676637 -0.340311
v -3.789981 -0.044423 0.754716
v -3.789805 -0.633036 0.414880
v -3.790089 0.631392 0.414880
v -3.790000 0.042779 0.754716
v -3.790000 0.674993 -0.340311
v -3.790089 0.674993 0.339361
v 4.451359 0.633036 -0.414880
v 4.451535 0.044423 -0.754716
v 4.451555 -0.042779 -0.754716
v 4.451643 -0.631392 -0.414880
v 4.451643 -0.674993 -0.339361
v 4.451555 -0.674993 0.340311
v 4.451535 -0.631392 0.415830
v 4.451359 -0.042779 0.755665
v 4.451339 0.044423 0.755666
v 4.451251 0.633036 0.415830
v 4.451251 0.676637 0.340311
v 4.451339 0.676637 -0.339361
vn -0.0001 0.8660 -0.5000
vn 0.0001 -0.8660 0.5000
vn -0.0001 -0.0000 1.0000
vn -0.0002 0.8660 0.5000
vn 0.0002 -0.8660 -0.5000
vn 0.5293 0.7347 0.4242
vn 0.0001 -0.0000 -1.0000
vn -0.3328 0.4714 -0.8167
vn 0.3721 0.4642 -0.8038
vn -0.3319 -0.4717 -0.8169
vn 0.3731 -0.4639 -0.8035
vn -0.3319 -0.9433 -0.0000
vn 0.3731 -0.9278 -0.0000
vn -0.3328 -0.4716 0.8166
vn 0.3721 -0.4640 0.8039
vn -0.3337 0.4713 0.8164
vn 0.3712 0.4643 0.8041
vn -0.3337 0.9427 -0.0000
vn 0.3712 0.9286 -0.0000
vn -0.5523 0.4167 -0.7220
vn -1.0000 -0.0002 -0.0001
vn -0.5947 0.6962 0.4020
vn -0.5520 0.4169 0.7221
vn -0.5953 -0.6959 -0.4018
vn -0.5523 -0.4169 0.7219
vn -0.5952 -0.6960 0.4017
vn -0.5526 -0.8335 -0.0001
vn -0.5949 0.6961 -0.4020
vn -0.5949 -0.0001 0.8038
vn -0.5526 -0.4168 -0.7218
vn -0.5520 0.8338 -0.0001
vn -0.5952 -0.0001 -0.8036
vn 1.0000 0.0002 0.0001
vn 0.4872 -0.4365 0.7563
vn 0.5292 0.0001 0.8485
vn 0.4870 -0.8734 0.0001
vn 0.5292 0.7349 -0.4242
vn 0.4870 -0.4367 -0.7564
vn 0.5289 0.0001 -0.8487
vn 0.5289 -0.7349 0.4244
vn 0.4875 0.8731 0.0001
vn 0.5288 -0.7351 -0.4244
vn 0.4872 0.4367 -0.7562
vn 0.4875 0.4366 0.7561
vt 0.091667 0.500000
vt 0.166667 0.612500
vt 0.166667 0.887500
vt 0.091667 1.000000
vt 0.075000 1.000000
vt -0.000000 0.887500
vt -0.000000 0.612500
vt 0.075000 0.500000
vt 0.591667 0.500000
vt 0.666667 0.612500
vt 0.666667 0.887500
vt 0.591667 1.000000
vt 0.575000 1.000000
vt 0.500000 0.887500
vt 0.500000 0.612500
vt 0.575000 0.500000
vt 0.425000 0.500000
vt 0.500000 0.612500
vt 0.500000 0.887500
vt 0.425000 1.000000
vt 0.408333 1.000000
vt 0.333333 0.887500
vt 0.333333 0.612500
vt 0.408333 0.500000
vt 0.258333 0.500000
vt 0.333333 0.612500
vt 0.258333 1.000000
vt 0.241667 1.000000
vt 0.166667 0.887500
vt 0.166667 0.612500
vt 0.241667 0.500000
vt 0.758333 0.500000
vt 0.833333 0.612500
vt 0.833333 0.887500
vt 0.758333 1.000000
vt 0.741667 1.000000
vt 0.666667 0.887500
vt 0.666667 0.612500
vt 0.741667 0.500000
vt 0.925000 0.500000
vt 1.000000 0.612500
vt 1.000000 0.887500
vt 0.925000 1.000000
vt 0.908333 1.000000
vt 0.833333 0.612500
vt 0.908333 0.500000
vt 0.656469 0.436000
vt 0.343531 0.436000
vt 0.864315 0.424000
vt 0.457846 0.262000
vt 0.957846 0.238000
vt 0.364315 0.076000
vt 0.843531 0.064000
vt 0.156469 0.064000
vt 0.635685 0.076000
vt 0.042154 0.238000
vt 0.542154 0.262000
vt 0.135685 0.424000
vt 0.843531 0.436000
vt 0.957846 0.262000
vt 0.864315 0.076000
vt 0.656469 0.064000
vt 0.542154 0.238000
vt 0.635685 0.424000
vt 0.364315 0.424000
vt 0.156469 0.436000
vt 0.042154 0.262000
vt 0.135685 0.076000
vt 0.343531 0.064000
vt 0.457846 0.238000
s 0
usemtl Material.001
f 33/1/1 32/2/1 35/3/1 34/4/1 6/5/1 5/6/1 2/7/1 1/8/1
f 15/9/2 14/10/2 17/11/2 16/12/2 24/13/2 23/14/2 20/15/2 19/16/2
f 21/17/3 20/18/3 23/19/3 22/20/3 30/21/3 29/22/3 26/23/3 25/24/3
f 27/25/4 26/26/4 29/22/4 28/27/4 36/28/4 35/29/4 32/30/4 31/31/4
f 9/32/5 8/33/5 11/34/5 10/35/5 18/36/5 17/37/5 14/38/5 13/39/5
f 3/40/7 2/41/7 5/42/7 4/43/7 12/44/7 11/34/7 8/45/7 7/46/7
usemtl Material.002
f 36/28/6 28/27/6 58/27/6 59/28/6
f 1/47/8 2/7/8 3/40/8
f 4/48/9 5/42/9 6/5/9
f 7/49/10 8/45/10 9/32/10
f 10/50/11 11/34/11 12/44/11
f 13/51/12 14/38/12 15/9/12
f 16/52/13 17/11/13 18/36/13
f 19/53/14 20/15/14 21/17/14
f 22/54/15 23/19/15 24/13/15
f 25/55/16 26/23/16 27/25/16
f 28/56/17 29/22/17 30/21/17
f 31/57/18 32/30/18 33/1/18
f 34/58/19 35/3/19 36/28/19
f 1/47/20 3/40/20 37/40/20 38/47/20
f 38/47/21 37/59/21 40/49/21 39/60/21 42/51/21 41/61/21 44/53/21 43/62/21 46/55/21 45/63/21 48/57/21 47/64/21
f 27/25/22 31/31/22 48/31/22 45/25/22
f 25/55/23 27/25/23 45/25/23 46/55/23
f 9/32/24 13/39/24 42/39/24 39/32/24
f 19/53/25 21/17/25 43/17/25 44/53/25
f 15/9/26 19/16/26 44/16/26 41/9/26
f 13/51/27 15/9/27 41/9/27 42/51/27
f 33/1/28 1/8/28 38/8/28 47/1/28
f 21/17/29 25/24/29 46/24/29 43/17/29
f 7/49/30 9/32/30 39/32/30 40/49/30
f 31/57/31 33/1/31 47/1/31 48/57/31
f 3/40/32 7/46/32 40/46/32 37/40/32
f 52/50/33 51/65/33 50/48/33 49/66/33 60/58/33 59/67/33 58/56/33 57/68/33 56/54/33 55/69/33 54/52/33 53/70/33
f 22/54/34 24/13/34 55/13/34 56/54/34
f 30/21/35 22/20/35 56/20/35 57/21/35
f 16/52/36 18/36/36 53/36/36 54/52/36
f 6/5/37 34/4/37 60/4/37 49/5/37
f 10/50/38 12/44/38 51/44/38 52/50/38
f 12/44/39 4/43/39 50/43/39 51/44/39
f 24/13/40 16/12/40 54/12/40 55/13/40
f 34/58/41 36/28/41 59/28/41 60/58/41
f 18/36/42 10/35/42 52/35/42 53/36/42
f 4/48/43 6/5/43 49/5/43 50/48/43
f 28/56/44 30/21/44 57/21/44 58/56/44
